<svg xmlns="http://www.w3.org/2000/svg" width="30.813" height="25.516" viewBox="0 0 30.813 25.516">
  <g id="Group_8649" data-name="Group 8649" transform="translate(0.08 -43.944)">
    <path id="Path_8959" data-name="Path 8959" d="M30.592,46.012l-1.927-1.927a.487.487,0,0,0-.341-.142H.4a.477.477,0,0,0-.184.037.483.483,0,0,0-.3.444V67.051a.487.487,0,0,0,.142.341l1.927,1.927a.487.487,0,0,0,.341.142H30.252a.481.481,0,0,0,.481-.481V46.353a.487.487,0,0,0-.142-.341ZM.883,45.587l.966.965V67.817l-.966-.965Zm1.646.284-.966-.965H28.125l.966.965ZM29.771,68.5H2.811V46.834h26.96Z" fill="#193768"/>
    <path id="Path_8960" data-name="Path 8960" d="M392.3,154.755H394.7a.481.481,0,0,0,.481-.481V148.5a.481.481,0,0,0-.481-.481H392.3a.481.481,0,0,0-.481.481v5.776A.481.481,0,0,0,392.3,154.755Zm1.924-2.406h-1.443v-.481h1.443Zm-1.443,1.443v-.481h1.443v.481Zm1.443-4.814V150.9h-1.443v-1.926Z" transform="translate(-368.318 -97.811)" fill="#193768"/>
    <path id="Path_8961" data-name="Path 8961" d="M320.313,154.755h2.406a.481.481,0,0,0,.481-.481V148.5a.481.481,0,0,0-.481-.481h-2.406a.481.481,0,0,0-.481.481v5.776A.481.481,0,0,0,320.313,154.755Zm1.924-3.851h-1.443v-.481h1.443Zm-1.443,2.889v-1.926h1.443v1.926Zm1.443-4.814v.481h-1.443v-.481Z" transform="translate(-300.665 -97.811)" fill="#193768"/>
    <path id="Path_8962" data-name="Path 8962" d="M248.313,154.755h2.406a.481.481,0,0,0,.481-.481V148.5a.481.481,0,0,0-.481-.481h-2.406a.481.481,0,0,0-.481.481v5.776A.481.481,0,0,0,248.313,154.755Zm1.924-2.406h-1.443v-.481h1.443Zm-1.443,1.443v-.481h1.443v.481Zm1.443-4.814V150.9h-1.443v-1.926Z" transform="translate(-232.997 -97.811)" fill="#193768"/>
    <path id="Path_8963" data-name="Path 8963" d="M176.321,154.755h2.406a.481.481,0,0,0,.481-.481V148.5a.481.481,0,0,0-.481-.481h-2.406a.481.481,0,0,0-.481.481v5.776A.481.481,0,0,0,176.321,154.755Zm1.925-3.851H176.8v-.481h1.443v.481Zm-1.443,2.889v-1.926h1.443v1.926Zm1.443-4.814v.481H176.8v-.481Z" transform="translate(-165.336 -97.811)" fill="#193768"/>
    <path id="Path_8964" data-name="Path 8964" d="M104.321,154.755h2.406a.481.481,0,0,0,.481-.481V148.5a.481.481,0,0,0-.481-.481h-2.406a.481.481,0,0,0-.481.481v5.776A.481.481,0,0,0,104.321,154.755Zm1.925-2.406H104.8v-.481h1.443v.481Zm-1.443,1.443v-.481h1.443v.481Zm1.443-4.814V150.9H104.8v-1.926Z" transform="translate(-97.668 -97.811)" fill="#193768"/>
    <path id="Path_8965" data-name="Path 8965" d="M392.265,282.771h2.406a.481.481,0,0,0,.481-.481v-5.776a.481.481,0,0,0-.481-.481h-2.406a.481.481,0,0,0-.481.481v5.776A.481.481,0,0,0,392.265,282.771Zm1.924-3.851h-1.443v-.481h1.443Zm-1.443,2.889v-1.926h1.443v1.926Zm1.443-4.814v.481h-1.443v-.481Z" transform="translate(-368.288 -218.125)" fill="#193768"/>
    <path id="Path_8966" data-name="Path 8966" d="M320.3,282.8H322.7a.481.481,0,0,0,.481-.481v-5.776a.481.481,0,0,0-.481-.481H320.3a.481.481,0,0,0-.481.481v5.776A.481.481,0,0,0,320.3,282.8Zm1.925-2.406h-1.444v-.481h1.444Zm-1.444,1.443v-.481h1.444v.481Zm1.444-4.814v1.926h-1.444v-1.926Z" transform="translate(-300.65 -218.155)" fill="#193768"/>
    <path id="Path_8967" data-name="Path 8967" d="M248.313,282.8h2.407a.481.481,0,0,0,.481-.481v-5.776a.481.481,0,0,0-.481-.481h-2.407a.481.481,0,0,0-.481.481v5.776A.481.481,0,0,0,248.313,282.8Zm1.925-3.851h-1.444v-.481h1.444Zm-1.444,2.889v-1.926h1.444v1.926Zm1.444-4.814v.481h-1.444v-.481Z" transform="translate(-232.997 -218.155)" fill="#193768"/>
    <path id="Path_8968" data-name="Path 8968" d="M176.313,282.8h2.407a.481.481,0,0,0,.481-.481v-5.776a.481.481,0,0,0-.481-.481h-2.407a.481.481,0,0,0-.481.481v5.776A.481.481,0,0,0,176.313,282.8Zm1.925-2.406h-1.444v-.481h1.444Zm-1.444,1.443v-.481h1.444v.481Zm1.444-4.814v1.926h-1.444v-1.926Z" transform="translate(-165.329 -218.155)" fill="#193768"/>
    <path id="Path_8969" data-name="Path 8969" d="M104.321,282.8h2.407a.481.481,0,0,0,.481-.481v-5.776a.481.481,0,0,0-.481-.481h-2.407a.481.481,0,0,0-.481.481v5.776A.481.481,0,0,0,104.321,282.8Zm1.925-3.851H104.8v-.481h1.444ZM104.8,281.84v-1.926h1.444v1.926Zm1.444-4.814v.481H104.8v-.481Z" transform="translate(-97.668 -218.155)" fill="#193768"/>
  </g>
</svg>
