<svg xmlns="http://www.w3.org/2000/svg" width="33" height="32" viewBox="0 0 33 32">
  <rect id="Rectangle_23801" data-name="Rectangle 23801" width="33" height="32" rx="6" fill="#f3f3fb"/>
  <g id="Group_10093" data-name="Group 10093" transform="translate(1.167 2.451)">
    <path id="Path_5983" data-name="Path 5983" d="M128.065,76.173a.538.538,0,0,0,.48.305h3.792v7.377a.566.566,0,0,0,.379.541.522.522,0,0,0,.163.026.533.533,0,0,0,.443-.242l7.584-11.349a.589.589,0,0,0,.037-.587.538.538,0,0,0-.48-.305H136.67V64.562a.566.566,0,0,0-.379-.541.527.527,0,0,0-.606.216L128.1,75.586A.589.589,0,0,0,128.065,76.173Z" transform="translate(-119.17 -60.66)" fill="#193768"/>
  </g>
</svg>
