<svg width="454" height="271" viewBox="0 0 454 271" fill="none" xmlns="http://www.w3.org/2000/svg">
<g filter="url(#filter0_d_16_32123)">
<text x="100" y="80" fill="#099ADC">Label</text>
<path d="M419 10.002H35C21.1929 10.002 10 21.1948 10 35.002V235.002C10 248.809 21.1929 260.002 35 260.002H419C432.807 260.002 444 248.809 444 235.002V35.002C444 21.1948 432.807 10.002 419 10.002Z" fill="#804498"/>
</g>
<path d="M129.2 226.108C126.696 226.108 125.444 224.792 125.444 222.16C125.444 220.768 125.752 219.752 126.368 219.112C126.992 218.464 127.936 218.14 129.2 218.14C130.464 218.14 131.404 218.464 132.02 219.112C132.644 219.752 132.956 220.768 132.956 222.16C132.956 224.792 131.704 226.108 129.2 226.108ZM129.2 224.728C129.92 224.728 130.452 224.52 130.796 224.104C131.14 223.68 131.312 223.032 131.312 222.16C131.312 221.208 131.144 220.532 130.808 220.132C130.472 219.724 129.936 219.52 129.2 219.52C128.464 219.52 127.928 219.724 127.592 220.132C127.256 220.532 127.088 221.208 127.088 222.16C127.088 223.032 127.26 223.68 127.604 224.104C127.948 224.52 128.48 224.728 129.2 224.728ZM134.086 220.3H135.586L135.646 220.84C135.902 220.648 136.206 220.492 136.558 220.372C136.91 220.244 137.274 220.18 137.65 220.18C138.394 220.18 138.938 220.356 139.282 220.708C139.634 221.052 139.81 221.596 139.81 222.34V225.988H138.19V222.424C138.19 222.032 138.11 221.76 137.95 221.608C137.79 221.448 137.502 221.368 137.086 221.368C136.838 221.368 136.59 221.424 136.342 221.536C136.094 221.64 135.882 221.78 135.706 221.956V225.988H134.086V220.3ZM142.713 226.108C142.161 226.108 141.757 225.98 141.501 225.724C141.253 225.468 141.129 225.06 141.129 224.5V217.9H142.749V224.368C142.749 224.568 142.785 224.708 142.857 224.788C142.937 224.86 143.057 224.896 143.217 224.896C143.425 224.896 143.613 224.868 143.781 224.812V225.928C143.613 225.992 143.449 226.036 143.289 226.06C143.129 226.092 142.937 226.108 142.713 226.108ZM144.884 217.984H146.648V219.256H144.884V217.984ZM145.016 221.5H144.164L144.308 220.3H146.636V225.988H145.016V221.5ZM148.02 220.3H149.52L149.58 220.84C149.836 220.648 150.14 220.492 150.492 220.372C150.844 220.244 151.208 220.18 151.584 220.18C152.328 220.18 152.872 220.356 153.216 220.708C153.568 221.052 153.744 221.596 153.744 222.34V225.988H152.124V222.424C152.124 222.032 152.044 221.76 151.884 221.608C151.724 221.448 151.436 221.368 151.02 221.368C150.772 221.368 150.524 221.424 150.276 221.536C150.028 221.64 149.816 221.78 149.64 221.956V225.988H148.02V220.3ZM158.027 226.108C157.019 226.108 156.231 225.86 155.663 225.364C155.103 224.86 154.823 224.116 154.823 223.132C154.823 222.204 155.067 221.48 155.555 220.96C156.051 220.44 156.771 220.18 157.715 220.18C158.579 220.18 159.247 220.408 159.719 220.864C160.199 221.312 160.439 221.916 160.439 222.676V223.708H156.323C156.403 224.148 156.603 224.456 156.923 224.632C157.251 224.808 157.731 224.896 158.363 224.896C158.667 224.896 158.975 224.868 159.287 224.812C159.607 224.756 159.879 224.684 160.103 224.596V225.748C159.575 225.988 158.883 226.108 158.027 226.108ZM159.023 222.712V222.4C159.023 221.696 158.603 221.344 157.763 221.344C157.235 221.344 156.863 221.452 156.647 221.668C156.431 221.876 156.323 222.224 156.323 222.712H159.023ZM166.911 219.724L165.651 219.928V218.572L168.531 218.14V225.988H166.911V219.724ZM173.079 219.508H169.539V218.26H174.855V219.256L172.011 225.988H170.331L173.079 219.508ZM177.915 226.108C177.539 226.108 177.139 226.076 176.715 226.012C176.291 225.948 175.943 225.856 175.671 225.736V224.332C175.943 224.452 176.267 224.548 176.643 224.62C177.019 224.684 177.367 224.716 177.687 224.716C178.247 224.716 178.655 224.628 178.911 224.452C179.175 224.268 179.307 223.968 179.307 223.552C179.307 223.16 179.211 222.88 179.019 222.712C178.827 222.544 178.475 222.46 177.963 222.46H175.635V221.548L175.839 218.26H180.435L180.315 219.508H177.219L177.111 221.212H178.275C179.195 221.212 179.871 221.412 180.303 221.812C180.735 222.212 180.951 222.812 180.951 223.612C180.951 224.388 180.691 225 180.171 225.448C179.659 225.888 178.907 226.108 177.915 226.108ZM189.003 226.108C188.827 226.108 188.623 226.088 188.391 226.048C188.167 226.016 187.987 225.976 187.851 225.928L186.939 223.492H186.051L186.123 222.34H187.959L188.907 224.872C189.419 224.872 189.807 224.696 190.071 224.344C190.335 223.992 190.467 223.44 190.467 222.688C190.467 222.16 190.399 221.752 190.263 221.464C190.127 221.168 189.903 220.96 189.591 220.84C189.279 220.712 188.843 220.648 188.283 220.648C187.955 220.648 187.607 220.676 187.239 220.732C186.879 220.78 186.539 220.856 186.219 220.96V219.76C187.003 219.512 187.831 219.388 188.703 219.388C189.855 219.388 190.691 219.664 191.211 220.216C191.739 220.768 192.003 221.592 192.003 222.688C192.003 223.408 191.867 224.028 191.595 224.548C191.323 225.06 190.959 225.448 190.503 225.712C190.047 225.976 189.547 226.108 189.003 226.108ZM195.417 222.004C195.417 221.54 195.325 221.2 195.141 220.984C194.965 220.76 194.637 220.648 194.157 220.648C193.901 220.648 193.625 220.676 193.329 220.732C193.033 220.788 192.765 220.864 192.525 220.96V219.772C192.773 219.66 193.073 219.568 193.425 219.496C193.777 219.424 194.125 219.388 194.469 219.388C195.373 219.388 196.025 219.58 196.425 219.964C196.833 220.348 197.037 220.952 197.037 221.776V225.988H195.417V222.004ZM198.529 223.924C198.529 223.516 198.597 223.18 198.733 222.916C198.869 222.644 199.109 222.456 199.453 222.352L198.229 222.028V220.48C198.605 220.168 199.065 219.908 199.609 219.7C200.161 219.492 200.765 219.388 201.421 219.388C202.445 219.388 203.213 219.596 203.725 220.012C204.245 220.42 204.505 221.108 204.505 222.076V225.988H202.885V222.04C202.885 221.536 202.765 221.18 202.525 220.972C202.293 220.756 201.897 220.648 201.337 220.648C200.993 220.648 200.669 220.7 200.365 220.804C200.061 220.908 199.813 221.04 199.621 221.2V221.368L200.953 221.728V222.712C200.641 222.792 200.429 222.924 200.317 223.108C200.205 223.284 200.149 223.56 200.149 223.936V225.988H198.529V223.924ZM210.018 225.208C210.21 224.792 210.462 224.412 210.774 224.068C211.086 223.716 211.502 223.308 212.022 222.844L212.334 222.568C212.71 222.224 212.974 221.972 213.126 221.812C213.286 221.644 213.398 221.476 213.462 221.308C213.534 221.132 213.57 220.912 213.57 220.648C213.57 220.28 213.45 220.004 213.21 219.82C212.97 219.628 212.618 219.532 212.154 219.532C211.538 219.532 210.918 219.656 210.294 219.904V218.476C210.59 218.372 210.938 218.292 211.338 218.236C211.746 218.172 212.138 218.14 212.514 218.14C213.394 218.14 214.062 218.36 214.518 218.8C214.982 219.232 215.214 219.836 215.214 220.612C215.214 221.1 215.098 221.528 214.866 221.896C214.634 222.264 214.282 222.652 213.81 223.06L213.618 223.228C213.258 223.54 212.958 223.812 212.718 224.044C212.486 224.268 212.29 224.5 212.13 224.74H215.286V225.988H210.018V225.208ZM218.451 226.108C218.075 226.108 217.675 226.076 217.251 226.012C216.827 225.948 216.479 225.856 216.207 225.736V224.332C216.479 224.452 216.803 224.548 217.179 224.62C217.555 224.684 217.903 224.716 218.223 224.716C218.783 224.716 219.191 224.628 219.447 224.452C219.711 224.268 219.843 223.968 219.843 223.552C219.843 223.16 219.747 222.88 219.555 222.712C219.363 222.544 219.011 222.46 218.499 222.46H216.171V221.548L216.375 218.26H220.971L220.851 219.508H217.755L217.647 221.212H218.811C219.731 221.212 220.407 221.412 220.839 221.812C221.271 222.212 221.487 222.812 221.487 223.612C221.487 224.388 221.227 225 220.707 225.448C220.195 225.888 219.443 226.108 218.451 226.108ZM225.874 226.3C224.642 226.3 223.75 225.956 223.198 225.268C222.654 224.58 222.382 223.564 222.382 222.22C222.382 220.876 222.654 219.86 223.198 219.172C223.75 218.484 224.642 218.14 225.874 218.14C227.106 218.14 227.994 218.484 228.538 219.172C229.09 219.86 229.366 220.876 229.366 222.22C229.366 223.564 229.09 224.58 228.538 225.268C227.994 225.956 227.106 226.3 225.874 226.3ZM225.874 224.908C226.546 224.908 227.022 224.688 227.302 224.248C227.582 223.8 227.722 223.124 227.722 222.22C227.722 221.316 227.582 220.644 227.302 220.204C227.022 219.756 226.546 219.532 225.874 219.532C225.202 219.532 224.726 219.756 224.446 220.204C224.166 220.644 224.026 221.316 224.026 222.22C224.026 223.124 224.166 223.8 224.446 224.248C224.726 224.688 225.202 224.908 225.874 224.908ZM236.165 226.852C235.629 226.356 235.229 225.712 234.965 224.92C234.709 224.12 234.581 223.264 234.581 222.352C234.581 221.44 234.709 220.588 234.965 219.796C235.229 218.996 235.629 218.348 236.165 217.852H238.001C236.817 218.9 236.225 220.4 236.225 222.352C236.225 224.304 236.817 225.804 238.001 226.852H236.165ZM241.491 226.108C241.315 226.108 241.111 226.088 240.879 226.048C240.655 226.016 240.475 225.976 240.339 225.928L239.427 223.492H238.539L238.611 222.34H240.447L241.395 224.872C241.907 224.872 242.295 224.696 242.559 224.344C242.823 223.992 242.955 223.44 242.955 222.688C242.955 222.16 242.887 221.752 242.751 221.464C242.615 221.168 242.391 220.96 242.079 220.84C241.767 220.712 241.331 220.648 240.771 220.648C240.443 220.648 240.095 220.676 239.727 220.732C239.367 220.78 239.027 220.856 238.707 220.96V219.76C239.491 219.512 240.319 219.388 241.191 219.388C242.343 219.388 243.179 219.664 243.699 220.216C244.227 220.768 244.491 221.592 244.491 222.688C244.491 223.408 244.355 224.028 244.083 224.548C243.811 225.06 243.447 225.448 242.991 225.712C242.535 225.976 242.035 226.108 241.491 226.108ZM243.418 218.944C243.01 218.944 242.666 218.816 242.386 218.56C242.106 218.296 241.966 217.964 241.966 217.564C241.966 217.164 242.106 216.832 242.386 216.568C242.666 216.304 243.01 216.172 243.418 216.172C243.826 216.172 244.17 216.304 244.45 216.568C244.722 216.832 244.858 217.164 244.858 217.564C244.858 217.964 244.722 218.296 244.45 218.56C244.17 218.816 243.826 218.944 243.418 218.944ZM243.418 218.092C243.562 218.092 243.686 218.04 243.79 217.936C243.894 217.824 243.946 217.7 243.946 217.564C243.946 217.42 243.894 217.296 243.79 217.192C243.686 217.08 243.562 217.024 243.418 217.024C243.274 217.024 243.15 217.08 243.046 217.192C242.934 217.296 242.878 217.42 242.878 217.564C242.878 217.7 242.934 217.824 243.046 217.936C243.15 218.04 243.274 218.092 243.418 218.092ZM247.906 222.004C247.906 221.54 247.814 221.2 247.63 220.984C247.454 220.76 247.126 220.648 246.646 220.648C246.39 220.648 246.114 220.676 245.818 220.732C245.522 220.788 245.254 220.864 245.014 220.96V219.772C245.262 219.66 245.562 219.568 245.914 219.496C246.266 219.424 246.614 219.388 246.958 219.388C247.862 219.388 248.514 219.58 248.914 219.964C249.322 220.348 249.526 220.952 249.526 221.776V225.988H247.906V222.004ZM253.201 226.108C252.505 226.108 251.957 225.896 251.557 225.472C251.157 225.048 250.957 224.464 250.957 223.72V219.508H252.577V223.624C252.577 224.056 252.673 224.368 252.865 224.56C253.057 224.752 253.349 224.848 253.741 224.848C254.037 224.848 254.329 224.784 254.617 224.656C254.913 224.528 255.149 224.368 255.325 224.176V219.508H256.945V225.988H255.457L255.385 225.352C254.761 225.856 254.033 226.108 253.201 226.108ZM260.007 226.108C259.231 226.108 258.543 225.98 257.943 225.724V224.488C258.487 224.728 259.047 224.848 259.623 224.848C260.383 224.848 260.923 224.692 261.243 224.38C261.563 224.06 261.723 223.516 261.723 222.748C261.723 221.98 261.563 221.44 261.243 221.128C260.923 220.808 260.383 220.648 259.623 220.648C259.047 220.648 258.487 220.768 257.943 221.008V219.772C258.543 219.516 259.231 219.388 260.007 219.388C261.095 219.388 261.907 219.672 262.443 220.24C262.987 220.808 263.259 221.644 263.259 222.748C263.259 223.852 262.987 224.688 262.443 225.256C261.907 225.824 261.095 226.108 260.007 226.108ZM266.514 226.108C265.818 226.108 265.27 225.896 264.87 225.472C264.47 225.048 264.27 224.464 264.27 223.72V219.508H265.89V223.624C265.89 224.056 265.986 224.368 266.178 224.56C266.37 224.752 266.662 224.848 267.054 224.848C267.35 224.848 267.642 224.784 267.93 224.656C268.226 224.528 268.462 224.368 268.638 224.176V219.508H270.258V225.988H268.77L268.698 225.352C268.074 225.856 267.346 226.108 266.514 226.108ZM278.412 226.108C277.38 226.108 276.548 225.968 275.916 225.688V224.26C276.276 224.404 276.66 224.52 277.068 224.608C277.476 224.696 277.872 224.74 278.256 224.74C278.856 224.74 279.276 224.684 279.516 224.572C279.764 224.46 279.888 224.228 279.888 223.876C279.888 223.644 279.832 223.46 279.72 223.324C279.608 223.188 279.424 223.072 279.168 222.976C278.912 222.872 278.512 222.744 277.968 222.592C277.16 222.368 276.592 222.088 276.264 221.752C275.936 221.416 275.772 220.952 275.772 220.36C275.772 219.648 276.032 219.1 276.552 218.716C277.072 218.332 277.828 218.14 278.82 218.14C279.268 218.14 279.692 218.172 280.092 218.236C280.5 218.292 280.832 218.368 281.088 218.464V219.892C280.432 219.644 279.748 219.52 279.036 219.52C278.492 219.52 278.084 219.58 277.812 219.7C277.548 219.82 277.416 220.04 277.416 220.36C277.416 220.56 277.464 220.72 277.56 220.84C277.664 220.96 277.832 221.068 278.064 221.164C278.304 221.252 278.672 221.36 279.168 221.488C280.064 221.728 280.684 222.04 281.028 222.424C281.372 222.8 281.544 223.284 281.544 223.876C281.544 224.572 281.28 225.12 280.752 225.52C280.224 225.912 279.444 226.108 278.412 226.108ZM285.632 226.108C284.624 226.108 283.836 225.86 283.268 225.364C282.708 224.86 282.428 224.116 282.428 223.132C282.428 222.204 282.672 221.48 283.16 220.96C283.656 220.44 284.376 220.18 285.32 220.18C286.184 220.18 286.852 220.408 287.324 220.864C287.804 221.312 288.044 221.916 288.044 222.676V223.708H283.928C284.008 224.148 284.208 224.456 284.528 224.632C284.856 224.808 285.336 224.896 285.968 224.896C286.272 224.896 286.58 224.868 286.892 224.812C287.212 224.756 287.484 224.684 287.708 224.596V225.748C287.18 225.988 286.488 226.108 285.632 226.108ZM286.628 222.712V222.4C286.628 221.696 286.208 221.344 285.368 221.344C284.84 221.344 284.468 221.452 284.252 221.668C284.036 221.876 283.928 222.224 283.928 222.712H286.628ZM289.172 220.3H290.672L290.732 220.84C290.988 220.648 291.292 220.492 291.644 220.372C291.996 220.244 292.36 220.18 292.736 220.18C293.48 220.18 294.024 220.356 294.368 220.708C294.72 221.052 294.896 221.596 294.896 222.34V225.988H293.276V222.424C293.276 222.032 293.196 221.76 293.036 221.608C292.876 221.448 292.588 221.368 292.172 221.368C291.924 221.368 291.676 221.424 291.428 221.536C291.18 221.64 290.968 221.78 290.792 221.956V225.988H289.172V220.3ZM298.219 226.108C297.803 226.108 297.403 226.08 297.019 226.024C296.635 225.968 296.323 225.892 296.083 225.796V224.452C296.347 224.564 296.655 224.652 297.007 224.716C297.359 224.772 297.691 224.8 298.003 224.8C298.419 224.8 298.703 224.776 298.855 224.728C299.015 224.672 299.095 224.564 299.095 224.404C299.095 224.26 299.023 224.148 298.879 224.068C298.735 223.988 298.459 223.884 298.051 223.756C297.931 223.724 297.779 223.676 297.595 223.612C297.035 223.428 296.623 223.208 296.359 222.952C296.103 222.696 295.975 222.336 295.975 221.872C295.975 221.32 296.175 220.9 296.575 220.612C296.983 220.324 297.619 220.18 298.483 220.18C298.811 220.18 299.131 220.204 299.443 220.252C299.763 220.3 300.039 220.364 300.271 220.444V221.776C300.063 221.68 299.819 221.604 299.539 221.548C299.259 221.492 298.995 221.464 298.747 221.464C298.363 221.464 298.079 221.492 297.895 221.548C297.711 221.596 297.619 221.696 297.619 221.848C297.619 221.984 297.683 222.088 297.811 222.16C297.947 222.224 298.203 222.312 298.579 222.424L298.975 222.544C299.439 222.688 299.795 222.84 300.043 223C300.291 223.152 300.467 223.336 300.571 223.552C300.683 223.768 300.739 224.044 300.739 224.38C300.739 224.948 300.527 225.38 300.103 225.676C299.679 225.964 299.051 226.108 298.219 226.108ZM304.708 226.108C302.652 226.108 301.624 225.12 301.624 223.144C301.624 222.184 301.876 221.452 302.38 220.948C302.892 220.436 303.668 220.18 304.708 220.18C305.748 220.18 306.524 220.436 307.036 220.948C307.548 221.452 307.804 222.184 307.804 223.144C307.804 225.12 306.772 226.108 304.708 226.108ZM304.708 224.728C305.236 224.728 305.608 224.608 305.824 224.368C306.048 224.128 306.16 223.72 306.16 223.144C306.16 222.568 306.048 222.16 305.824 221.92C305.608 221.68 305.236 221.56 304.708 221.56C304.188 221.56 303.816 221.68 303.592 221.92C303.376 222.16 303.268 222.568 303.268 223.144C303.268 223.72 303.376 224.128 303.592 224.368C303.816 224.608 304.188 224.728 304.708 224.728ZM308.93 220.3H310.43L310.502 220.888C310.766 220.72 311.086 220.572 311.462 220.444C311.838 220.316 312.21 220.228 312.578 220.18V221.404C312.234 221.452 311.866 221.536 311.474 221.656C311.082 221.768 310.774 221.888 310.55 222.016V225.988H308.93V220.3ZM317.789 219.508H319.277L319.349 220.144C319.645 219.904 319.981 219.72 320.357 219.592C320.741 219.456 321.153 219.388 321.593 219.388C322.273 219.388 322.805 219.596 323.189 220.012C323.581 220.428 323.777 221 323.777 221.728V225.988H322.157V221.824C322.157 221.416 322.061 221.12 321.869 220.936C321.677 220.744 321.385 220.648 320.993 220.648C320.697 220.648 320.401 220.712 320.105 220.84C319.817 220.968 319.585 221.128 319.409 221.32V225.988H317.789V219.508ZM320.755 216.712H322.075V217.516H325.063L325.003 218.62H320.755V216.712ZM320.863 217.552H319.927V216.448H321.955V217.516H324.523L324.463 218.62H320.863V217.552ZM327.643 226.108C327.131 226.108 326.687 226.048 326.311 225.928L324.487 221.488H326.059L327.487 224.956C328.079 224.956 328.511 224.756 328.783 224.356C329.055 223.956 329.191 223.352 329.191 222.544C329.191 222.056 329.143 221.68 329.047 221.416C328.959 221.144 328.811 220.952 328.603 220.84C328.395 220.72 328.107 220.66 327.739 220.66H327.247V219.508H327.967C328.911 219.508 329.607 219.756 330.055 220.252C330.503 220.748 330.727 221.512 330.727 222.544C330.727 223.76 330.451 224.66 329.899 225.244C329.347 225.82 328.595 226.108 327.643 226.108ZM331.536 219.508H333.156V221.476H334.764C335.164 221.476 335.444 221.388 335.604 221.212C335.772 221.036 335.856 220.76 335.856 220.384V219.508H337.476V220.324C337.476 221.228 337.168 221.804 336.552 222.052C336.872 222.18 337.096 222.372 337.224 222.628C337.36 222.876 337.428 223.192 337.428 223.576V225.988H335.808V223.756C335.808 223.348 335.728 223.064 335.568 222.904C335.416 222.744 335.136 222.664 334.728 222.664H333.156V225.988H331.536V219.508ZM342.604 226.108C341.772 226.108 341.044 225.856 340.42 225.352L340.348 225.988H338.86V219.508H340.48V224.176C340.656 224.368 340.888 224.528 341.176 224.656C341.472 224.784 341.768 224.848 342.064 224.848C342.456 224.848 342.748 224.752 342.94 224.56C343.132 224.368 343.228 224.056 343.228 223.624V219.508H344.848V223.72C344.848 224.464 344.648 225.048 344.248 225.472C343.848 225.896 343.3 226.108 342.604 226.108ZM348.75 226.108C347.926 226.108 347.266 225.844 346.77 225.316C346.282 224.78 346.038 223.968 346.038 222.88C346.038 221.768 346.326 220.908 346.902 220.3C347.478 219.692 348.318 219.388 349.422 219.388C350.158 219.388 350.77 219.512 351.258 219.76C351.754 220.008 352.114 220.336 352.338 220.744C352.57 221.152 352.686 221.596 352.686 222.076V225.988H351.066V222.184C351.066 221.696 350.938 221.32 350.682 221.056C350.434 220.784 350.006 220.648 349.398 220.648C348.182 220.648 347.574 221.392 347.574 222.88C347.574 223.584 347.694 224.088 347.934 224.392C348.182 224.696 348.55 224.848 349.038 224.848C349.406 224.848 349.682 224.816 349.866 224.752V225.94C349.57 226.052 349.198 226.108 348.75 226.108ZM353.638 226.852C354.262 226.308 354.714 225.66 354.994 224.908C355.274 224.156 355.414 223.304 355.414 222.352C355.414 220.392 354.822 218.892 353.638 217.852H355.486C356.014 218.348 356.406 218.996 356.662 219.796C356.926 220.588 357.058 221.44 357.058 222.352C357.058 223.264 356.926 224.12 356.662 224.92C356.406 225.712 356.014 226.356 355.486 226.852H353.638Z" fill="white"/>
<path d="M111 224.988C113.209 224.988 115 223.197 115 220.988C115 218.779 113.209 216.988 111 216.988C108.791 216.988 107 218.779 107 220.988C107 223.197 108.791 224.988 111 224.988Z" fill="#099ADC"/>
<path d="M178.58 186.455H176.204V185.207H182.564V186.455H180.2V192.935H178.58V186.455ZM184.919 193.055C182.863 193.055 181.835 192.067 181.835 190.091C181.835 189.131 182.087 188.399 182.591 187.895C183.103 187.383 183.879 187.127 184.919 187.127C185.959 187.127 186.735 187.383 187.247 187.895C187.759 188.399 188.015 189.131 188.015 190.091C188.015 192.067 186.983 193.055 184.919 193.055ZM184.919 191.675C185.447 191.675 185.819 191.555 186.035 191.315C186.259 191.075 186.371 190.667 186.371 190.091C186.371 189.515 186.259 189.107 186.035 188.867C185.819 188.627 185.447 188.507 184.919 188.507C184.399 188.507 184.027 188.627 183.803 188.867C183.587 189.107 183.479 189.515 183.479 190.091C183.479 190.667 183.587 191.075 183.803 191.315C184.027 191.555 184.399 191.675 184.919 191.675ZM190.975 193.055C190.327 193.055 189.843 192.887 189.523 192.551C189.203 192.215 189.043 191.743 189.043 191.135V188.495H188.239V187.247H189.043V186.023L190.663 185.543V187.247H192.103L192.007 188.495H190.663V191.027C190.663 191.331 190.731 191.543 190.867 191.663C191.011 191.783 191.239 191.843 191.551 191.843C191.775 191.843 192.007 191.803 192.247 191.723V192.839C191.887 192.983 191.463 193.055 190.975 193.055ZM194.503 193.055C193.927 193.055 193.443 192.903 193.051 192.599C192.667 192.287 192.475 191.851 192.475 191.291C192.475 190.723 192.675 190.275 193.075 189.947C193.483 189.611 194.067 189.443 194.827 189.443H196.507V189.287C196.507 189.047 196.463 188.859 196.375 188.723C196.295 188.587 196.147 188.487 195.931 188.423C195.723 188.359 195.423 188.327 195.031 188.327C194.383 188.327 193.759 188.427 193.159 188.627V187.487C193.439 187.375 193.767 187.287 194.143 187.223C194.527 187.159 194.935 187.127 195.367 187.127C197.159 187.127 198.055 187.859 198.055 189.323V192.935H196.651L196.567 192.419C196.103 192.843 195.415 193.055 194.503 193.055ZM194.947 191.987C195.291 191.987 195.595 191.931 195.859 191.819C196.131 191.699 196.347 191.543 196.507 191.351V190.451H194.863C194.231 190.451 193.915 190.711 193.915 191.231C193.915 191.735 194.259 191.987 194.947 191.987ZM200.944 193.055C200.392 193.055 199.988 192.927 199.732 192.671C199.484 192.415 199.36 192.007 199.36 191.447V184.847H200.98V191.315C200.98 191.515 201.016 191.655 201.088 191.735C201.168 191.807 201.288 191.843 201.448 191.843C201.656 191.843 201.844 191.815 202.012 191.759V192.875C201.844 192.939 201.68 192.983 201.52 193.007C201.36 193.039 201.168 193.055 200.944 193.055ZM207.258 185.207H212.802V186.467H208.878V188.447H212.358V189.695H208.878V191.687H212.802V192.935H207.258V185.207ZM213.926 187.247H215.426L215.486 187.787C215.742 187.595 216.046 187.439 216.398 187.319C216.75 187.191 217.114 187.127 217.49 187.127C218.234 187.127 218.778 187.303 219.122 187.655C219.474 187.999 219.65 188.543 219.65 189.287V192.935H218.03V189.371C218.03 188.979 217.95 188.707 217.79 188.555C217.63 188.395 217.342 188.315 216.926 188.315C216.678 188.315 216.43 188.371 216.182 188.483C215.934 188.587 215.722 188.727 215.546 188.903V192.935H213.926V187.247ZM223.933 193.055C222.925 193.055 222.137 192.807 221.569 192.311C221.009 191.807 220.729 191.063 220.729 190.079C220.729 189.151 220.973 188.427 221.461 187.907C221.957 187.387 222.677 187.127 223.621 187.127C224.485 187.127 225.153 187.355 225.625 187.811C226.105 188.259 226.345 188.863 226.345 189.623V190.655H222.229C222.309 191.095 222.509 191.403 222.829 191.579C223.157 191.755 223.637 191.843 224.269 191.843C224.573 191.843 224.881 191.815 225.193 191.759C225.513 191.703 225.785 191.631 226.009 191.543V192.695C225.481 192.935 224.789 193.055 223.933 193.055ZM224.929 189.659V189.347C224.929 188.643 224.509 188.291 223.669 188.291C223.141 188.291 222.769 188.399 222.553 188.615C222.337 188.823 222.229 189.171 222.229 189.659H224.929ZM227.473 187.247H228.973L229.045 187.835C229.309 187.667 229.629 187.519 230.005 187.391C230.381 187.263 230.753 187.175 231.121 187.127V188.351C230.777 188.399 230.409 188.483 230.017 188.603C229.625 188.715 229.317 188.835 229.093 188.963V192.935H227.473V187.247ZM233.869 195.047C233.437 195.047 232.997 195.019 232.549 194.963C232.109 194.907 231.741 194.827 231.445 194.723V193.511C231.757 193.615 232.125 193.695 232.549 193.751C232.981 193.815 233.393 193.847 233.785 193.847C234.353 193.847 234.757 193.815 234.997 193.751C235.237 193.695 235.357 193.591 235.357 193.439C235.357 193.311 235.301 193.223 235.189 193.175C235.077 193.127 234.853 193.103 234.517 193.103H232.969C232.465 193.103 232.085 193.007 231.829 192.815C231.573 192.623 231.445 192.343 231.445 191.975C231.445 191.735 231.509 191.523 231.637 191.339C231.773 191.147 231.977 190.995 232.249 190.883C231.601 190.555 231.277 190.003 231.277 189.227C231.277 188.507 231.501 187.979 231.949 187.643C232.405 187.299 233.085 187.127 233.989 187.127C234.157 187.127 234.349 187.139 234.565 187.163C234.781 187.187 234.957 187.215 235.093 187.247H237.229L237.193 188.267H236.293C236.541 188.499 236.665 188.823 236.665 189.239C236.665 189.839 236.477 190.311 236.101 190.655C235.725 190.991 235.185 191.159 234.481 191.159C234.265 191.159 234.025 191.139 233.761 191.099C233.505 191.131 233.297 191.191 233.137 191.279C232.985 191.359 232.909 191.463 232.909 191.591C232.909 191.695 232.949 191.767 233.029 191.807C233.109 191.847 233.233 191.867 233.401 191.867H235.009C235.585 191.867 236.029 191.999 236.341 192.263C236.653 192.527 236.809 192.903 236.809 193.391C236.809 194.495 235.829 195.047 233.869 195.047ZM234.001 190.247C234.473 190.247 234.805 190.167 234.997 190.007C235.189 189.839 235.285 189.559 235.285 189.167C235.285 188.767 235.189 188.483 234.997 188.315C234.805 188.139 234.473 188.051 234.001 188.051C233.545 188.051 233.217 188.139 233.017 188.315C232.817 188.483 232.717 188.767 232.717 189.167C232.717 189.551 232.813 189.827 233.005 189.995C233.197 190.163 233.529 190.247 234.001 190.247ZM238.91 195.047C238.414 195.047 238.006 194.983 237.686 194.855V193.715C237.91 193.795 238.154 193.835 238.418 193.835C238.738 193.835 238.986 193.763 239.162 193.619C239.346 193.475 239.534 193.215 239.726 192.839L237.182 187.247H238.874L240.542 191.111L242.198 187.247H243.878L241.634 192.539C241.282 193.379 240.902 194.007 240.494 194.423C240.086 194.839 239.558 195.047 238.91 195.047ZM252.502 193.055C251.422 193.055 250.574 192.795 249.958 192.275C249.35 191.755 249.046 191.007 249.046 190.031V185.207H250.666V189.911C250.666 190.495 250.822 190.935 251.134 191.231C251.454 191.527 251.91 191.675 252.502 191.675C253.094 191.675 253.546 191.527 253.858 191.231C254.17 190.935 254.326 190.495 254.326 189.911V185.207H255.946V190.031C255.946 190.999 255.642 191.747 255.034 192.275C254.426 192.795 253.582 193.055 252.502 193.055ZM258.833 193.055C258.417 193.055 258.017 193.027 257.633 192.971C257.249 192.915 256.937 192.839 256.697 192.743V191.399C256.961 191.511 257.269 191.599 257.621 191.663C257.973 191.719 258.305 191.747 258.617 191.747C259.033 191.747 259.317 191.723 259.469 191.675C259.629 191.619 259.709 191.511 259.709 191.351C259.709 191.207 259.637 191.095 259.493 191.015C259.349 190.935 259.073 190.831 258.665 190.703C258.545 190.671 258.393 190.623 258.209 190.559C257.649 190.375 257.237 190.155 256.973 189.899C256.717 189.643 256.589 189.283 256.589 188.819C256.589 188.267 256.789 187.847 257.189 187.559C257.597 187.271 258.233 187.127 259.097 187.127C259.425 187.127 259.745 187.151 260.057 187.199C260.377 187.247 260.653 187.311 260.885 187.391V188.723C260.677 188.627 260.433 188.551 260.153 188.495C259.873 188.439 259.609 188.411 259.361 188.411C258.977 188.411 258.693 188.439 258.509 188.495C258.325 188.543 258.233 188.643 258.233 188.795C258.233 188.931 258.297 189.035 258.425 189.107C258.561 189.171 258.817 189.259 259.193 189.371L259.589 189.491C260.053 189.635 260.409 189.787 260.657 189.947C260.905 190.099 261.081 190.283 261.185 190.499C261.297 190.715 261.353 190.991 261.353 191.327C261.353 191.895 261.141 192.327 260.717 192.623C260.293 192.911 259.665 193.055 258.833 193.055ZM264.265 193.055C263.689 193.055 263.205 192.903 262.813 192.599C262.429 192.287 262.237 191.851 262.237 191.291C262.237 190.723 262.437 190.275 262.837 189.947C263.245 189.611 263.829 189.443 264.589 189.443H266.269V189.287C266.269 189.047 266.225 188.859 266.137 188.723C266.057 188.587 265.909 188.487 265.693 188.423C265.485 188.359 265.185 188.327 264.793 188.327C264.145 188.327 263.521 188.427 262.921 188.627V187.487C263.201 187.375 263.529 187.287 263.905 187.223C264.289 187.159 264.697 187.127 265.129 187.127C266.921 187.127 267.817 187.859 267.817 189.323V192.935H266.413L266.329 192.419C265.865 192.843 265.177 193.055 264.265 193.055ZM264.709 191.987C265.053 191.987 265.357 191.931 265.621 191.819C265.893 191.699 266.109 191.543 266.269 191.351V190.451H264.625C263.993 190.451 263.677 190.711 263.677 191.231C263.677 191.735 264.021 191.987 264.709 191.987ZM271.521 195.047C271.09 195.047 270.65 195.019 270.201 194.963C269.762 194.907 269.394 194.827 269.098 194.723V193.511C269.41 193.615 269.778 193.695 270.201 193.751C270.634 193.815 271.046 193.847 271.438 193.847C272.006 193.847 272.41 193.815 272.65 193.751C272.89 193.695 273.01 193.591 273.01 193.439C273.01 193.311 272.954 193.223 272.842 193.175C272.73 193.127 272.506 193.103 272.17 193.103H270.622C270.118 193.103 269.738 193.007 269.482 192.815C269.226 192.623 269.098 192.343 269.098 191.975C269.098 191.735 269.162 191.523 269.29 191.339C269.426 191.147 269.63 190.995 269.902 190.883C269.254 190.555 268.93 190.003 268.93 189.227C268.93 188.507 269.154 187.979 269.602 187.643C270.058 187.299 270.738 187.127 271.642 187.127C271.81 187.127 272.002 187.139 272.218 187.163C272.434 187.187 272.61 187.215 272.746 187.247H274.882L274.846 188.267H273.946C274.194 188.499 274.318 188.823 274.318 189.239C274.318 189.839 274.13 190.311 273.754 190.655C273.378 190.991 272.838 191.159 272.134 191.159C271.918 191.159 271.678 191.139 271.414 191.099C271.158 191.131 270.95 191.191 270.79 191.279C270.638 191.359 270.562 191.463 270.562 191.591C270.562 191.695 270.602 191.767 270.682 191.807C270.762 191.847 270.886 191.867 271.054 191.867H272.662C273.238 191.867 273.682 191.999 273.994 192.263C274.306 192.527 274.462 192.903 274.462 193.391C274.462 194.495 273.482 195.047 271.521 195.047ZM271.654 190.247C272.126 190.247 272.458 190.167 272.65 190.007C272.842 189.839 272.938 189.559 272.938 189.167C272.938 188.767 272.842 188.483 272.65 188.315C272.458 188.139 272.126 188.051 271.654 188.051C271.198 188.051 270.87 188.139 270.67 188.315C270.47 188.483 270.37 188.767 270.37 189.167C270.37 189.551 270.466 189.827 270.658 189.995C270.85 190.163 271.182 190.247 271.654 190.247ZM278.461 193.055C277.453 193.055 276.665 192.807 276.097 192.311C275.537 191.807 275.257 191.063 275.257 190.079C275.257 189.151 275.501 188.427 275.989 187.907C276.485 187.387 277.205 187.127 278.149 187.127C279.013 187.127 279.681 187.355 280.153 187.811C280.633 188.259 280.872 188.863 280.872 189.623V190.655H276.757C276.837 191.095 277.037 191.403 277.357 191.579C277.685 191.755 278.165 191.843 278.797 191.843C279.101 191.843 279.409 191.815 279.721 191.759C280.041 191.703 280.313 191.631 280.537 191.543V192.695C280.009 192.935 279.317 193.055 278.461 193.055ZM279.457 189.659V189.347C279.457 188.643 279.037 188.291 278.197 188.291C277.669 188.291 277.297 188.399 277.081 188.615C276.865 188.823 276.757 189.171 276.757 189.659H279.457Z" fill="white"/>
<path d="M60.1 177.152C58.916 177.152 58.052 176.812 57.508 176.132C56.972 175.452 56.704 174.464 56.704 173.168C56.704 171.824 56.968 170.808 57.496 170.12C58.024 169.432 58.892 169.088 60.1 169.088C61.3 169.088 62.164 169.432 62.692 170.12C63.22 170.808 63.484 171.824 63.484 173.168C63.484 174.464 63.212 175.452 62.668 176.132C62.132 176.812 61.276 177.152 60.1 177.152ZM60.1 176.036C60.836 176.036 61.364 175.792 61.684 175.304C62.004 174.816 62.164 174.104 62.164 173.168C62.164 172.168 62.008 171.424 61.696 170.936C61.384 170.448 60.852 170.204 60.1 170.204C59.34 170.204 58.804 170.448 58.492 170.936C58.18 171.424 58.024 172.168 58.024 173.168C58.024 174.112 58.184 174.828 58.504 175.316C58.824 175.796 59.356 176.036 60.1 176.036Z" fill="#BCBCBC"/>
<path d="M44.4159 131.618C44.6079 131.178 44.8719 130.77 45.2079 130.394C45.5439 130.01 45.9679 129.598 46.4799 129.158C46.9679 128.734 47.3159 128.418 47.5239 128.21C47.7319 127.994 47.8799 127.782 47.9679 127.574C48.0559 127.366 48.0999 127.11 48.0999 126.806C48.0999 126.382 47.9759 126.066 47.7279 125.858C47.4799 125.642 47.0839 125.534 46.5399 125.534C45.9559 125.534 45.3439 125.654 44.7039 125.894V124.742C44.9919 124.646 45.3239 124.57 45.6999 124.514C46.0839 124.45 46.4479 124.418 46.7919 124.418C47.6399 124.418 48.2879 124.63 48.7359 125.054C49.1839 125.47 49.4079 126.05 49.4079 126.794C49.4079 127.298 49.2839 127.734 49.0359 128.102C48.7959 128.47 48.4199 128.886 47.9079 129.35L47.7039 129.53C47.2559 129.922 46.9119 130.238 46.6719 130.478C46.4399 130.71 46.2439 130.97 46.0839 131.258H49.4919V132.266H44.4159V131.618ZM52.7054 132.386C52.3294 132.386 51.9414 132.354 51.5414 132.29C51.1414 132.234 50.8134 132.15 50.5574 132.038V130.898C50.8294 131.018 51.1414 131.11 51.4934 131.174C51.8534 131.238 52.2014 131.27 52.5374 131.27C53.1614 131.27 53.6174 131.162 53.9054 130.946C54.1934 130.73 54.3374 130.382 54.3374 129.902C54.3374 129.438 54.2254 129.102 54.0014 128.894C53.7854 128.686 53.3854 128.582 52.8014 128.582H50.5214V127.79L50.7254 124.538H55.1174L55.0094 125.546H51.8294L51.6974 127.574H53.0054C53.9174 127.574 54.5854 127.77 55.0094 128.162C55.4414 128.546 55.6574 129.134 55.6574 129.926C55.6574 130.702 55.4054 131.306 54.9014 131.738C54.3974 132.17 53.6654 132.386 52.7054 132.386ZM60.0932 132.482C58.9092 132.482 58.0452 132.142 57.5012 131.462C56.9652 130.782 56.6972 129.794 56.6972 128.498C56.6972 127.154 56.9612 126.138 57.4892 125.45C58.0172 124.762 58.8852 124.418 60.0932 124.418C61.2932 124.418 62.1572 124.762 62.6852 125.45C63.2132 126.138 63.4772 127.154 63.4772 128.498C63.4772 129.794 63.2052 130.782 62.6612 131.462C62.1252 132.142 61.2692 132.482 60.0932 132.482ZM60.0932 131.366C60.8292 131.366 61.3572 131.122 61.6772 130.634C61.9972 130.146 62.1572 129.434 62.1572 128.498C62.1572 127.498 62.0012 126.754 61.6892 126.266C61.3772 125.778 60.8452 125.534 60.0932 125.534C59.3332 125.534 58.7972 125.778 58.4852 126.266C58.1732 126.754 58.0172 127.498 58.0172 128.498C58.0172 129.442 58.1772 130.158 58.4972 130.646C58.8172 131.126 59.3492 131.366 60.0932 131.366Z" fill="#BCBCBC"/>
<path d="M44.8958 87.7159C44.5198 87.7159 44.1318 87.6839 43.7318 87.6199C43.3318 87.5639 43.0038 87.4799 42.7478 87.3679V86.2279C43.0198 86.3479 43.3318 86.4399 43.6838 86.5039C44.0438 86.5679 44.3918 86.5999 44.7278 86.5999C45.3518 86.5999 45.8078 86.4919 46.0958 86.2759C46.3838 86.0599 46.5278 85.7119 46.5278 85.2319C46.5278 84.7679 46.4158 84.4319 46.1918 84.2239C45.9758 84.0159 45.5758 83.9119 44.9918 83.9119H42.7118V83.1199L42.9158 79.8679H47.3078L47.1998 80.8759H44.0198L43.8878 82.9039H45.1958C46.1078 82.9039 46.7758 83.0999 47.1998 83.4919C47.6318 83.8759 47.8478 84.4639 47.8478 85.2559C47.8478 86.0319 47.5958 86.6359 47.0918 87.0679C46.5878 87.4999 45.8558 87.7159 44.8958 87.7159ZM52.2836 87.8119C51.0996 87.8119 50.2356 87.4719 49.6916 86.7919C49.1556 86.1119 48.8876 85.1239 48.8876 83.8279C48.8876 82.4839 49.1516 81.4679 49.6796 80.7799C50.2076 80.0919 51.0756 79.7479 52.2836 79.7479C53.4836 79.7479 54.3476 80.0919 54.8756 80.7799C55.4036 81.4679 55.6676 82.4839 55.6676 83.8279C55.6676 85.1239 55.3956 86.1119 54.8516 86.7919C54.3156 87.4719 53.4596 87.8119 52.2836 87.8119ZM52.2836 86.6959C53.0196 86.6959 53.5476 86.4519 53.8676 85.9639C54.1876 85.4759 54.3476 84.7639 54.3476 83.8279C54.3476 82.8279 54.1916 82.0839 53.8796 81.5959C53.5676 81.1079 53.0356 80.8639 52.2836 80.8639C51.5236 80.8639 50.9876 81.1079 50.6756 81.5959C50.3636 82.0839 50.2076 82.8279 50.2076 83.8279C50.2076 84.7719 50.3676 85.4879 50.6876 85.9759C51.0076 86.4559 51.5396 86.6959 52.2836 86.6959ZM60.1 87.8119C58.916 87.8119 58.052 87.4719 57.508 86.7919C56.972 86.1119 56.704 85.1239 56.704 83.8279C56.704 82.4839 56.968 81.4679 57.496 80.7799C58.024 80.0919 58.892 79.7479 60.1 79.7479C61.3 79.7479 62.164 80.0919 62.692 80.7799C63.22 81.4679 63.484 82.4839 63.484 83.8279C63.484 85.1239 63.212 86.1119 62.668 86.7919C62.132 87.4719 61.276 87.8119 60.1 87.8119ZM60.1 86.6959C60.836 86.6959 61.364 86.4519 61.684 85.9639C62.004 85.4759 62.164 84.7639 62.164 83.8279C62.164 82.8279 62.008 82.0839 61.696 81.5959C61.384 81.1079 60.852 80.8639 60.1 80.8639C59.34 80.8639 58.804 81.1079 58.492 81.5959C58.18 82.0839 58.024 82.8279 58.024 83.8279C58.024 84.7719 58.184 85.4879 58.504 85.9759C58.824 86.4559 59.356 86.6959 60.1 86.6959Z" fill="#BCBCBC"/>
<path opacity="0.4" d="M71.9829 110.996C71.9829 110.996 100.573 101.537 129.162 101.537C157.751 101.537 157.752 106.58 186.341 106.58C214.93 106.58 213.872 101.537 242.461 101.537C269.992 101.537 271.051 95 299.64 95C328.229 95 328.23 106.58 356.819 106.58C385.408 106.58 413.998 95 413.998 95V173.935H71.9829V110.996Z" fill="url(#paint0_linear_16_32123)"/>
<path d="M62 40H47C44.2386 40 42 42.2386 42 45V60C42 62.7614 44.2386 65 47 65H62C64.7614 65 67 62.7614 67 60V45C67 42.2386 64.7614 40 62 40Z" fill="white"/>
<path d="M81.16 61.16C80.488 61.16 79.8373 61.1013 79.208 60.984C78.5893 60.856 78.0507 60.6907 77.592 60.488V55.944H81.256L81.352 57.528H79.64V59.272C79.832 59.336 80.072 59.3893 80.36 59.432C80.648 59.464 80.92 59.48 81.176 59.48C81.7627 59.48 82.2267 59.3893 82.568 59.208C82.9093 59.0267 83.1547 58.7387 83.304 58.344C83.464 57.9387 83.544 57.3947 83.544 56.712C83.544 55.976 83.448 55.4053 83.256 55C83.0747 54.5947 82.776 54.3067 82.36 54.136C81.944 53.9653 81.368 53.88 80.632 53.88C79.608 53.88 78.632 54.024 77.704 54.312V52.696C78.1733 52.536 78.7173 52.4133 79.336 52.328C79.9547 52.2427 80.5627 52.2 81.16 52.2C82.6853 52.2 83.8053 52.5787 84.52 53.336C85.2347 54.0933 85.592 55.2187 85.592 56.712C85.592 58.1733 85.2347 59.2827 84.52 60.04C83.8053 60.7867 82.6853 61.16 81.16 61.16ZM90.1555 55.688C90.1555 55.0693 90.0328 54.616 89.7875 54.328C89.5528 54.0293 89.1155 53.88 88.4755 53.88C88.1342 53.88 87.7662 53.9173 87.3715 53.992C86.9768 54.0667 86.6195 54.168 86.2995 54.296V52.712C86.6302 52.5627 87.0302 52.44 87.4995 52.344C87.9688 52.248 88.4328 52.2 88.8915 52.2C90.0968 52.2 90.9662 52.456 91.4995 52.968C92.0435 53.48 92.3155 54.2853 92.3155 55.384V61H90.1555V55.688ZM94.2245 55.64C94.2245 54.552 94.5552 53.7093 95.2165 53.112C95.8885 52.504 96.9178 52.2 98.3045 52.2C99.6912 52.2 100.715 52.504 101.377 53.112C102.038 53.7093 102.369 54.552 102.369 55.64V61H100.209V55.48C100.209 54.9573 100.038 54.5627 99.6965 54.296C99.3658 54.0187 98.9018 53.88 98.3045 53.88C97.6752 53.88 97.1952 54.0187 96.8645 54.296C96.5445 54.5627 96.3845 54.9573 96.3845 55.48V57.032C96.8325 56.6907 97.3338 56.52 97.8885 56.52H98.9285L98.9925 58.232H97.8405C97.2752 58.232 96.7898 58.3867 96.3845 58.696V61H94.2245V55.64ZM107.327 55.688C107.327 55.0693 107.205 54.616 106.959 54.328C106.725 54.0293 106.287 53.88 105.647 53.88C105.306 53.88 104.938 53.9173 104.543 53.992C104.149 54.0667 103.791 54.168 103.471 54.296V52.712C103.802 52.5627 104.202 52.44 104.671 52.344C105.141 52.248 105.605 52.2 106.063 52.2C107.269 52.2 108.138 52.456 108.671 52.968C109.215 53.48 109.487 54.2853 109.487 55.384V61H107.327V55.688ZM114.308 61.16C113.7 61.16 113.119 61.1173 112.564 61.032C112.02 60.9467 111.583 60.8347 111.252 60.696V58.952C111.636 59.112 112.074 59.24 112.564 59.336C113.055 59.432 113.503 59.48 113.908 59.48C114.634 59.48 115.146 59.4267 115.444 59.32C115.743 59.2027 115.892 58.984 115.892 58.664C115.892 58.4613 115.834 58.296 115.716 58.168C115.61 58.04 115.45 57.9333 115.236 57.848C115.034 57.752 114.708 57.6293 114.26 57.48L113.572 57.256C112.708 56.9573 112.074 56.632 111.668 56.28C111.274 55.9173 111.076 55.416 111.076 54.776C111.076 53.9867 111.38 53.3627 111.988 52.904C112.607 52.4347 113.503 52.2 114.676 52.2C115.156 52.2 115.647 52.2373 116.148 52.312C116.66 52.3867 117.082 52.4773 117.412 52.584V54.312C117.082 54.1733 116.687 54.0667 116.228 53.992C115.78 53.9173 115.364 53.88 114.98 53.88C114.404 53.88 113.951 53.944 113.62 54.072C113.29 54.1893 113.124 54.408 113.124 54.728C113.124 54.9733 113.236 55.16 113.46 55.288C113.684 55.416 114.1 55.576 114.708 55.768C114.9 55.8213 115.146 55.9013 115.444 56.008C116.063 56.2213 116.548 56.44 116.9 56.664C117.263 56.888 117.524 57.16 117.684 57.48C117.855 57.7893 117.94 58.184 117.94 58.664C117.94 59.4853 117.62 60.1093 116.98 60.536C116.351 60.952 115.46 61.16 114.308 61.16ZM124.889 59.96C125.145 59.4053 125.481 58.8987 125.897 58.44C126.313 57.9707 126.868 57.4267 127.561 56.808L127.977 56.44C128.478 55.9813 128.83 55.6453 129.033 55.432C129.246 55.208 129.396 54.984 129.481 54.76C129.577 54.5253 129.625 54.232 129.625 53.88C129.625 53.3893 129.465 53.0213 129.145 52.776C128.825 52.52 128.356 52.392 127.737 52.392C126.916 52.392 126.089 52.5573 125.257 52.888V50.984C125.652 50.8453 126.116 50.7387 126.649 50.664C127.193 50.5787 127.716 50.536 128.217 50.536C129.39 50.536 130.281 50.8293 130.889 51.416C131.508 51.992 131.817 52.7973 131.817 53.832C131.817 54.4827 131.662 55.0533 131.353 55.544C131.044 56.0347 130.574 56.552 129.945 57.096L129.689 57.32C129.209 57.736 128.809 58.0987 128.489 58.408C128.18 58.7067 127.918 59.016 127.705 59.336H131.913V61H124.889V59.96Z" fill="white"/>
<defs>
<filter id="filter0_d_16_32123" x="0" y="0.00195312" width="454" height="270" filterUnits="userSpaceOnUse" color-interpolation-filters="sRGB">
<feFlood flood-opacity="0" result="BackgroundImageFix"/>
<feColorMatrix in="SourceAlpha" type="matrix" values="0 0 0 0 0 0 0 0 0 0 0 0 0 0 0 0 0 0 127 0" result="hardAlpha"/>
<feOffset/>
<feGaussianBlur stdDeviation="5"/>
<feColorMatrix type="matrix" values="0 0 0 0 0 0 0 0 0 0 0 0 0 0 0 0 0 0 0.161 0"/>
<feBlend mode="normal" in2="BackgroundImageFix" result="effect1_dropShadow_16_32123"/>
<feBlend mode="normal" in="SourceGraphic" in2="effect1_dropShadow_16_32123" result="shape"/>
</filter>
<linearGradient id="paint0_linear_16_32123" x1="242.99" y1="99.815" x2="242.99" y2="180.802" gradientUnits="userSpaceOnUse">
<stop stop-color="#099ADC"/>
<stop offset="1" stop-color="#099ADC" stop-opacity="0.102"/>
</linearGradient>
</defs>
</svg>
