<svg width="918" height="159" viewBox="0 0 918 159" fill="none" xmlns="http://www.w3.org/2000/svg">
<path d="M834.536 78.0811H845.836V66.7824H834.536V78.0811Z" fill="#F6921E"/>
<path d="M821.221 91.3975H832.52V80.0988H821.221V91.3975Z" fill="#F6921E"/>
<path d="M807.703 11.2988H819.001V0.000163434H807.703V11.2988Z" fill="#F6921E"/>
<path d="M807.703 91.3975H819.001V80.0988H807.703V91.3975Z" fill="#F6921E"/>
<path d="M794.387 11.2988H805.685V0.000163434H794.387V11.2988Z" fill="#F6921E"/>
<path d="M834.536 91.3975H845.836V80.0988H834.536V91.3975Z" fill="#F6921E"/>
<path d="M821.221 51.2466H832.52V39.9479H821.221V51.2466Z" fill="#F6921E"/>
<path d="M794.387 51.2466H805.685V39.9479H794.387V51.2466Z" fill="#F6921E"/>
<path d="M821.221 11.2988H832.52V0.000163434H821.221V11.2988Z" fill="#F6921E"/>
<path d="M807.703 51.2466H819.001V39.9479H807.703V51.2466Z" fill="#F6921E"/>
<path d="M781.071 78.0811H792.371V66.7824H781.071V78.0811Z" fill="#F6921E"/>
<path d="M767.755 24.6147H779.053V13.3161H767.755V24.6147Z" fill="#F6921E"/>
<path d="M794.387 91.3975H805.685V80.0988H794.387V91.3975Z" fill="#F6921E"/>
<path d="M767.755 78.0811H779.053V66.7824H767.755V78.0811Z" fill="#F6921E"/>
<path d="M767.755 37.9307H779.053V26.632H767.755V37.9307Z" fill="#F6921E"/>
<path d="M781.071 91.3975H792.371V80.0988H781.071V91.3975Z" fill="#F6921E"/>
<path d="M781.071 51.2466H792.371V39.9479H781.071V51.2466Z" fill="#F6921E"/>
<path d="M781.071 24.6147H792.371V13.3161H781.071V24.6147Z" fill="#F6921E"/>
<path d="M781.071 11.2988H792.371V0.000163434H781.071V11.2988Z" fill="#F6921E"/>
<path d="M781.071 37.9307H792.371V26.632H781.071V37.9307Z" fill="#F6921E"/>
<path d="M834.536 51.2466H845.836V39.9479H834.536V51.2466Z" fill="#F6921E"/>
<path d="M847.853 24.6147H859.152V13.3161H847.853V24.6147Z" fill="#F6921E"/>
<path d="M847.853 64.7651H859.152V53.4665H847.853V64.7651Z" fill="#F6921E"/>
<path d="M834.536 64.7651H845.836V53.4665H834.536V64.7651Z" fill="#F6921E"/>
<path d="M834.536 11.2988H845.836V0.000163434H834.536V11.2988Z" fill="#F6921E"/>
<path d="M834.536 24.6147H845.836V13.3161H834.536V24.6147Z" fill="#F6921E"/>
<path d="M847.853 78.0811H859.152V66.7824H847.853V78.0811Z" fill="#F6921E"/>
<path d="M904.064 64.7651H915.361V53.4665H904.064V64.7651Z" fill="#F6921E"/>
<path d="M904.064 37.9307H915.361V26.632H904.064V37.9307Z" fill="#F6921E"/>
<path d="M904.064 78.0811H915.361V66.7824H904.064V78.0811Z" fill="#F6921E"/>
<path d="M904.064 91.3975H915.361V80.0988H904.064V91.3975Z" fill="#F6921E"/>
<path d="M904.064 11.2988H915.361V0.000163434H904.064V11.2988Z" fill="#F6921E"/>
<path d="M904.064 24.6147H915.361V13.3161H904.064V24.6147Z" fill="#F6921E"/>
<path d="M904.064 51.2466H915.361V39.9479H904.064V51.2466Z" fill="#F6921E"/>
<path d="M890.747 64.7651H902.047V53.4665H890.747V64.7651Z" fill="#F6921E"/>
<path d="M890.747 78.0811H902.047V66.7824H890.747V78.0811Z" fill="#F6921E"/>
<path d="M890.747 11.2988H902.047V0.000163434H890.747V11.2988Z" fill="#F6921E"/>
<path d="M890.747 91.3975H902.047V80.0988H890.747V91.3975Z" fill="#F6921E"/>
<path d="M890.747 24.6147H902.047V13.3161H890.747V24.6147Z" fill="#F6921E"/>
<path d="M890.747 37.9307H902.047V26.632H890.747V37.9307Z" fill="#F6921E"/>
<path d="M890.747 51.2466H902.047V39.9479H890.747V51.2466Z" fill="#F6921E"/>
<path d="M4.51306 155.026H20.7397V151.702H8.07306V141.965H20.1851V138.721H8.07306V129.221H20.7397V125.896H4.51306V155.026Z" fill="black"/>
<path d="M84.776 148.536L69.4187 125.897H65.064V155.026H68.6267V131.042L85.012 155.026H88.336V125.897H84.776V148.536Z" fill="black"/>
<path d="M131.081 129.142H137.571V154.948H141.133V129.142H147.543V125.818H131.081V129.142Z" fill="black"/>
<path d="M189.893 155.026H206.12V151.702H193.453V141.965H205.565V138.721H193.453V129.221H206.12V125.896H189.893V155.026Z" fill="black"/>
<path d="M270.036 150.633C268.32 151.557 266.54 152.018 264.693 152.018C263.112 152.018 261.618 151.716 260.221 151.108C258.822 150.501 257.582 149.67 256.5 148.614C255.417 147.56 254.561 146.32 253.926 144.894C253.294 143.469 252.978 141.965 252.978 140.384C252.978 138.905 253.281 137.466 253.889 136.068C254.494 134.67 255.325 133.456 256.381 132.428C257.438 131.397 258.664 130.566 260.062 129.934C261.46 129.301 262.953 128.985 264.535 128.985C266.328 128.985 268.122 129.393 269.918 130.212C271.71 131.03 273.137 132.282 274.193 133.972H278.151C277.517 132.548 276.685 131.293 275.657 130.212C274.626 129.13 273.493 128.232 272.252 127.52C271.013 126.808 269.72 126.28 268.373 125.937C267.028 125.594 265.723 125.422 264.455 125.422C262.398 125.422 260.444 125.818 258.597 126.609C256.752 127.401 255.156 128.47 253.809 129.816C252.462 131.161 251.396 132.744 250.604 134.565C249.812 136.384 249.416 138.325 249.416 140.384C249.416 142.548 249.812 144.552 250.604 146.398C251.396 148.246 252.476 149.856 253.85 151.226C255.22 152.6 256.83 153.668 258.677 154.433C260.524 155.197 262.529 155.58 264.693 155.58C267.543 155.58 270.166 154.802 272.569 153.245C274.97 151.689 276.856 149.564 278.231 146.873H274.271C273.163 148.456 271.752 149.71 270.036 150.633Z" fill="black"/>
<path d="M339.492 138.403H325.561V125.896H321.921V155.027H325.561V141.65H339.492V155.027H343.133V125.896H339.492V138.403Z" fill="black"/>
<path d="M434.156 138.086C433.523 137.929 432.89 137.744 432.256 137.533C431.626 137.324 431.056 137.058 430.555 136.741C430.052 136.425 429.646 136.004 429.327 135.474C429.012 134.948 428.852 134.288 428.852 133.496C428.852 132.282 429.276 131.214 430.12 130.289C430.963 129.368 432.019 128.905 433.287 128.905C434.656 128.905 435.78 129.353 436.65 130.25C437.52 131.149 438.008 132.337 438.114 133.813H441.835C441.835 131.386 441.043 129.38 439.46 127.797C437.878 126.214 435.95 125.422 433.682 125.422C432.52 125.422 431.426 125.62 430.396 126.016C429.368 126.412 428.471 126.966 427.706 127.677C426.939 128.392 426.332 129.249 425.886 130.25C425.436 131.254 425.212 132.337 425.212 133.496C425.212 134.762 425.436 135.845 425.886 136.741C426.332 137.638 426.914 138.402 427.627 139.037C428.34 139.669 429.156 140.172 430.08 140.541C431.002 140.91 431.94 141.174 432.89 141.333C434.579 141.597 436.003 142.19 437.164 143.114C438.324 144.038 438.907 145.265 438.907 146.794C438.907 148.326 438.378 149.578 437.323 150.554C436.267 151.532 434.975 152.018 433.443 152.018C431.912 152.018 430.66 151.478 429.684 150.394C428.707 149.314 428.194 147.954 428.142 146.32H424.342C424.342 147.692 424.58 148.945 425.054 150.078C425.528 151.216 426.188 152.19 427.032 153.008C427.876 153.828 428.852 154.46 429.962 154.908C431.068 155.356 432.256 155.58 433.523 155.58C434.736 155.58 435.884 155.356 436.967 154.908C438.047 154.46 438.998 153.838 439.816 153.048C440.635 152.256 441.28 151.32 441.755 150.237C442.23 149.157 442.468 148.008 442.468 146.794C442.468 144.21 441.688 142.257 440.132 140.937C438.575 139.618 436.583 138.669 434.156 138.086Z" fill="black"/>
<path d="M485.844 155.026H489.407V125.896H485.844V155.026Z" fill="black"/>
<path d="M581.017 150.633C579.301 151.557 577.521 152.018 575.674 152.018C574.092 152.018 572.6 151.716 571.202 151.108C569.804 150.501 568.562 149.67 567.481 148.614C566.398 147.56 565.542 146.32 564.908 144.894C564.274 143.469 563.958 141.965 563.958 140.384C563.958 138.905 564.262 137.466 564.87 136.068C565.476 134.67 566.306 133.456 567.362 132.428C568.42 131.397 569.645 130.566 571.044 129.934C572.44 129.301 573.933 128.985 575.516 128.985C577.309 128.985 579.102 129.393 580.898 130.212C582.692 131.03 584.117 132.282 585.173 133.972H589.13C588.497 132.548 587.666 131.293 586.638 130.212C585.606 129.13 584.474 128.232 583.232 127.52C581.993 126.808 580.701 126.28 579.354 125.937C578.008 125.594 576.704 125.422 575.436 125.422C573.378 125.422 571.425 125.818 569.578 126.609C567.732 127.401 566.137 128.47 564.79 129.816C563.444 131.161 562.377 132.744 561.585 134.565C560.792 136.384 560.397 138.325 560.397 140.384C560.397 142.548 560.792 144.552 561.585 146.398C562.377 148.246 563.457 149.856 564.83 151.226C566.201 152.6 567.812 153.668 569.657 154.433C571.504 155.197 573.51 155.58 575.674 155.58C578.524 155.58 581.148 154.802 583.55 153.245C585.95 151.689 587.836 149.564 589.21 146.873H585.252C584.144 148.456 582.732 149.71 581.017 150.633Z" fill="black"/>
<path d="M645.366 144.934C644.758 146.332 643.911 147.56 642.833 148.615C641.75 149.671 640.497 150.502 639.071 151.108C637.646 151.715 636.143 152.018 634.561 152.018C632.977 152.018 631.473 151.728 630.049 151.147C628.623 150.567 627.37 149.762 626.287 148.734C625.206 147.703 624.349 146.491 623.715 145.091C623.082 143.695 622.767 142.202 622.767 140.62C622.767 138.984 623.069 137.466 623.677 136.068C624.282 134.671 625.126 133.444 626.209 132.388C627.29 131.332 628.545 130.502 629.97 129.895C631.394 129.288 632.925 128.984 634.561 128.984C636.143 128.984 637.634 129.288 639.031 129.895C640.43 130.502 641.671 131.319 642.753 132.348C643.833 133.378 644.691 134.578 645.326 135.95C645.958 137.323 646.274 138.799 646.274 140.383C646.274 142.018 645.971 143.536 645.366 144.934ZM645.326 129.815C643.901 128.47 642.25 127.414 640.378 126.648C638.503 125.884 636.539 125.502 634.482 125.502C632.371 125.502 630.378 125.896 628.505 126.688C626.631 127.48 625.007 128.548 623.635 129.895C622.265 131.239 621.17 132.836 620.353 134.683C619.533 136.53 619.125 138.51 619.125 140.62C619.125 142.731 619.549 144.696 620.393 146.516C621.235 148.338 622.357 149.92 623.757 151.266C625.154 152.612 626.775 153.668 628.623 154.432C630.47 155.196 632.422 155.579 634.482 155.579C636.59 155.579 638.583 155.184 640.457 154.392C642.33 153.602 643.966 152.519 645.366 151.147C646.762 149.776 647.871 148.167 648.69 146.319C649.507 144.471 649.915 142.494 649.915 140.383C649.915 138.272 649.507 136.319 648.69 134.524C647.871 132.731 646.751 131.16 645.326 129.815" fill="black"/>
<path d="M690.543 155.105H694.024V149.643H690.543V155.105Z" fill="black"/>
<path d="M712.612 158.034H716.095L719.813 149.882H716.331L712.612 158.034Z" fill="black"/>
<path d="M782.628 125.896H778.988V155.105H794.185V151.701H782.628V125.896Z" fill="black"/>
<path d="M829.961 129.142H836.452V154.948H840.012V129.142H846.424V125.818H829.961V129.142Z" fill="black"/>
<path d="M901.749 145.171C901.061 146.571 900.151 147.758 899.017 148.734C897.882 149.71 896.55 150.45 895.021 150.95C893.489 151.452 891.854 151.702 890.111 151.702H885.283V129.222H889.321C893.595 129.116 896.906 130.119 899.255 132.23C901.602 134.34 902.777 137.058 902.777 140.383C902.777 142.178 902.434 143.774 901.749 145.171ZM901.749 129.974C900.271 128.682 898.503 127.678 896.443 126.967C894.387 126.254 892.143 125.896 889.718 125.896H881.643V155.027H890.826C892.934 155.027 894.927 154.684 896.801 153.998C898.673 153.312 900.323 152.335 901.749 151.068C903.174 149.802 904.307 148.272 905.151 146.478C905.995 144.684 906.418 142.652 906.418 140.383C906.418 138.272 906.007 136.334 905.193 134.566C904.373 132.798 903.225 131.267 901.749 129.974Z" fill="black"/>
<path d="M913.851 155.105H917.333V149.643H913.851V155.105Z" fill="black"/>
<path d="M716.635 8.74315C712.734 8.74315 709.506 11.9418 709.506 15.9085V38.2245L656.362 38.1685C652.406 38.1685 649.234 41.3511 649.234 45.2791C649.234 49.2271 652.406 52.3805 656.362 52.4085L709.506 52.4271L709.47 75.5431C709.47 79.4711 712.679 82.6538 716.581 82.6538C720.518 82.6538 723.71 79.4711 723.71 75.5431L723.727 15.9085C723.727 11.9698 720.574 8.77115 716.635 8.74315Z" fill="#0087CE"/>
<path d="M631.467 8.72482C627.549 8.68882 624.338 11.8968 624.338 15.8542L624.285 75.4701C624.285 79.4261 627.457 82.5981 631.413 82.5981C635.331 82.5981 638.522 79.4261 638.522 75.4701L638.578 15.8542C638.578 11.8968 635.386 8.72482 631.467 8.72482Z" fill="#0087CE"/>
<path d="M515.609 27.2171C516.083 26.2224 516.557 25.4744 517.015 24.9824C517.415 24.5638 517.689 24.2891 518.016 24.0611C518.545 23.6798 519.056 23.4518 519.693 23.2504C520.351 23.0411 521.207 22.9398 522.229 22.9398C532.095 22.9771 592.2 23.0038 592.2 23.0038C596.121 23.0038 599.329 19.8038 599.329 15.9104C599.329 11.9798 596.157 8.77176 592.219 8.77176C592.219 8.77176 577.211 8.75176 560.963 8.75176C544.696 8.75176 527.191 8.7251 522.265 8.7251C520.624 8.7251 518.892 8.85309 517.233 9.20909C514.279 9.82909 511.324 11.1051 508.827 13.1664C506.929 14.6798 505.343 16.5851 503.993 18.7651C502.025 21.9731 500.692 25.7851 499.781 30.2251C498.924 34.6478 498.468 39.7251 498.468 45.6531C498.468 51.5878 498.777 56.6584 499.453 60.9971C500.019 64.3171 500.729 67.2624 501.804 69.9704C502.644 71.9584 503.647 73.7731 504.96 75.4771C505.909 76.7264 507.021 77.8118 508.297 78.7971C510.176 80.2184 512.291 81.2211 514.441 81.8144C516.576 82.4264 518.801 82.6438 520.989 82.6438C531.657 82.6611 592.164 82.6904 592.164 82.6904C596.084 82.6904 599.24 79.5078 599.24 75.5864C599.295 71.6664 596.084 68.4744 592.164 68.4744C592.164 68.4744 531.657 68.4198 520.989 68.4198C520.04 68.4198 519.295 68.3464 518.709 68.2198C518.199 68.1104 517.835 67.9464 517.507 67.8371C517.251 67.7091 517.015 67.5638 516.832 67.3998C516.449 67.0704 516.028 66.6251 515.573 65.7478C515.191 65.1184 514.844 64.2438 514.497 63.0944C513.951 61.3731 513.495 59.0651 513.165 56.2024C512.892 53.2478 512.748 49.7918 512.748 45.6798C512.711 40.3558 513.148 36.1064 513.804 32.8424C514.315 30.4091 514.935 28.5558 515.609 27.2171Z" fill="#0087CE"/>
<path d="M93.696 8.72497H62.4107C46.1667 8.70764 28.6773 8.70764 23.7187 8.70764C22.0787 8.70764 20.3733 8.84364 18.7053 9.17164C15.7693 9.81964 12.7987 11.0956 10.3093 13.1556C8.42267 14.6236 6.80934 16.565 5.48801 18.689C3.52801 21.9516 2.19601 25.753 1.30267 30.193C0.37334 34.6316 0 39.701 0 45.625C0 51.5596 0.264004 56.6196 0.956004 60.9676C1.45734 64.277 2.19601 67.221 3.28001 69.8916C4.08401 71.897 5.14134 73.7396 6.43467 75.4343C7.392 76.6836 8.504 77.805 9.75334 78.753C11.604 80.1836 13.7547 81.1956 15.8973 81.7796C18.0493 82.381 20.2733 82.609 22.4707 82.609C33.1267 82.617 93.6413 82.6543 93.6413 82.6543C97.56 82.6543 100.715 79.4636 100.715 75.5436C100.715 71.6236 97.56 68.4436 93.6413 68.4156C93.6413 68.4156 33.1267 68.3783 22.4707 68.3783C21.4947 68.3783 20.7747 68.3063 20.192 68.1783C19.6907 68.069 19.2893 67.9223 19.0053 67.805C18.732 67.669 18.496 67.5396 18.2947 67.3583C17.9213 67.0383 17.52 66.5916 17.0373 65.717C16.6987 65.0783 16.3253 64.2036 15.952 63.0636C15.4227 61.3503 14.968 59.0356 14.6573 56.145C14.3653 53.229 14.2293 49.7556 14.2293 45.6436C14.2293 40.321 14.6027 36.073 15.268 32.8183C15.7693 30.385 16.4347 28.525 17.0907 27.185C17.5653 26.1916 18.0493 25.453 18.496 24.9516C18.8507 24.5503 19.1613 24.2583 19.5347 24.0396C20.008 23.6476 20.5373 23.4196 21.1747 23.237C21.84 23.0196 22.6893 22.9103 23.7 22.9103C33.6013 22.9463 93.66 22.9743 93.66 22.9743C97.58 22.9743 100.771 19.773 100.771 15.8903C100.771 11.961 97.6147 8.76097 93.696 8.72497Z" fill="#0087CE"/>
<path d="M93.6595 39.1537L29.9995 39.1257C26.0795 39.1257 22.9248 42.3257 22.9248 46.2644C22.9248 50.1377 26.0795 53.3737 29.9995 53.3737L93.6595 53.3924C97.5795 53.4471 100.77 50.2017 100.77 46.3097C100.77 42.3804 97.5795 39.1804 93.6595 39.1537Z" fill="#0087CE"/>
<path d="M466.44 8.72497H435.155C418.911 8.70764 401.421 8.70764 396.463 8.70764C394.821 8.70764 393.117 8.84364 391.448 9.17164C388.513 9.81964 385.543 11.0956 383.053 13.1556C381.165 14.6236 379.552 16.565 378.231 18.689C376.271 21.9516 374.94 25.753 374.047 30.193C373.116 34.6316 372.744 39.701 372.744 45.625C372.744 51.5596 373.007 56.6196 373.7 60.9676C374.201 64.277 374.94 67.221 376.024 69.8916C376.827 71.897 377.884 73.7396 379.179 75.4343C380.136 76.6836 381.248 77.805 382.496 78.753C384.347 80.1836 386.499 81.1956 388.64 81.7796C390.792 82.381 393.017 82.609 395.213 82.609C405.869 82.617 466.384 82.6543 466.384 82.6543C470.303 82.6543 473.459 79.4636 473.459 75.5436C473.459 71.6236 470.303 68.4436 466.384 68.4156C466.384 68.4156 405.869 68.3783 395.213 68.3783C394.237 68.3783 393.519 68.3063 392.935 68.1783C392.433 68.069 392.032 67.9223 391.749 67.805C391.476 67.669 391.239 67.5396 391.037 67.3583C390.664 67.0383 390.263 66.5916 389.78 65.717C389.443 65.0783 389.069 64.2036 388.696 63.0636C388.167 61.3503 387.711 59.0356 387.401 56.145C387.109 53.229 386.972 49.7556 386.972 45.6436C386.972 40.321 387.347 36.073 388.012 32.8183C388.513 30.385 389.179 28.525 389.835 27.185C390.308 26.1916 390.792 25.453 391.239 24.9516C391.595 24.5503 391.904 24.2583 392.279 24.0396C392.752 23.6476 393.281 23.4196 393.919 23.237C394.584 23.0196 395.432 22.9103 396.444 22.9103C406.344 22.9463 466.403 22.9743 466.403 22.9743C470.323 22.9743 473.513 19.773 473.513 15.8903C473.513 11.961 470.359 8.76097 466.44 8.72497Z" fill="#0087CE"/>
<path d="M466.402 39.1537L402.742 39.1257C398.822 39.1257 395.669 42.3257 395.669 46.2644C395.669 50.1377 398.822 53.3737 402.742 53.3737L466.402 53.3924C470.322 53.4471 473.513 50.2017 473.513 46.3097C473.513 42.3804 470.322 39.1804 466.402 39.1537Z" fill="#0087CE"/>
<path d="M340.678 8.92532L248.573 8.84399C244.672 8.84399 241.462 12.0427 241.462 15.9627C241.462 19.9013 244.653 23.092 248.573 23.092L287.497 23.12L287.46 75.5253C287.46 79.4267 290.632 82.6533 294.57 82.6533C298.526 82.6533 301.7 79.4453 301.7 75.5253L301.717 23.12L340.678 23.1467C344.597 23.1467 347.789 19.9373 347.789 16.072C347.789 12.1173 344.634 8.92532 340.678 8.92532Z" fill="#0087CE"/>
<path d="M209.466 8.72521C205.546 8.72521 202.374 11.9172 202.374 15.8359C202.374 15.8359 202.338 49.7545 202.319 64.8052C201.133 63.7212 199.767 62.4185 198.071 60.8132C191.343 54.3132 181.134 44.2585 171.799 34.9612C162.519 25.6985 154.098 18.1332 150.87 14.8879C149.083 13.1185 147.278 11.6785 145.309 10.5305C144.325 10.0292 143.231 9.58255 142.119 9.20921C141.006 8.94521 139.802 8.72521 138.582 8.72521C137.433 8.72521 136.23 8.89055 135.118 9.28121C134.115 9.56388 133.185 10.0292 132.365 10.5305C130.851 11.5159 129.722 12.7185 128.865 13.9585C127.587 15.8919 126.823 17.8785 126.349 19.9012C125.874 21.9345 125.691 23.1652 125.691 25.3705C125.655 34.4599 125.638 75.5625 125.638 75.5625C125.638 79.4919 128.81 82.6719 132.766 82.6719C136.686 82.6719 139.875 79.4919 139.875 75.5625V53.8852C139.913 42.4905 139.913 29.9292 139.913 25.3985C139.913 25.2625 139.917 25.1759 139.919 25.0812C139.925 25.0012 140.022 23.6652 141.166 24.4372C145.547 28.9145 157.922 41.9132 169.849 53.7239C175.902 59.7679 181.899 65.6199 186.622 70.2239C188.973 72.5025 191.034 74.4439 192.693 75.9479C193.513 76.7132 194.225 77.3612 194.862 77.9252C195.173 78.1639 195.463 78.4359 195.757 78.6545C196.047 78.8919 196.339 79.1025 196.739 79.4025C197.67 80.0319 198.819 80.7159 200.241 81.3812C200.951 81.6812 201.754 81.9919 202.647 82.2559C203.577 82.4839 204.598 82.6585 205.783 82.6585C206.439 82.6585 207.223 82.5932 207.953 82.4105C209.301 82.1372 210.797 81.5172 212.019 80.5599C212.949 79.8585 213.714 78.9652 214.315 78.0345C215.246 76.6692 215.774 75.1825 216.066 73.7239C216.43 72.2652 216.558 70.7532 216.558 69.1572C216.558 57.7065 216.594 15.8639 216.594 15.8639C216.594 11.9172 213.403 8.72521 209.466 8.72521Z" fill="#0087CE"/>
</svg>
